<mxfile host="65bd71144e">
    <diagram name="Page-1" id="ymSUMP2M7Suw5oAQ0Rwv">
        <mxGraphModel dx="896" dy="604" grid="1" gridSize="10" guides="1" tooltips="1" connect="1" arrows="1" fold="1" page="1" pageScale="1" pageWidth="850" pageHeight="1100" math="0" shadow="0">
            <root>
                <mxCell id="0"/>
                <mxCell id="1" parent="0"/>
                <mxCell id="bdaFyPw2M_IR0UO48AUZ-9" style="edgeStyle=orthogonalEdgeStyle;rounded=0;orthogonalLoop=1;jettySize=auto;html=1;exitX=1;exitY=0.5;exitDx=0;exitDy=0;entryX=0;entryY=0.5;entryDx=0;entryDy=0;shape=link;fontFamily=FiraCode Nerd Font Propo;" parent="1" source="bdaFyPw2M_IR0UO48AUZ-1" target="bdaFyPw2M_IR0UO48AUZ-4" edge="1">
                    <mxGeometry relative="1" as="geometry"/>
                </mxCell>
                <mxCell id="bdaFyPw2M_IR0UO48AUZ-10" value="&lt;font style=&quot;font-size: 14px;&quot;&gt;0,1&lt;/font&gt;" style="edgeLabel;html=1;align=center;verticalAlign=middle;resizable=0;points=[];fontFamily=FiraCode Nerd Font Propo;" parent="bdaFyPw2M_IR0UO48AUZ-9" vertex="1" connectable="0">
                    <mxGeometry x="-0.3455" y="3" relative="1" as="geometry">
                        <mxPoint x="14" y="3" as="offset"/>
                    </mxGeometry>
                </mxCell>
                <mxCell id="bdaFyPw2M_IR0UO48AUZ-1" value="Livre" style="swimlane;whiteSpace=wrap;html=1;fontFamily=FiraCode Nerd Font Propo;" parent="1" vertex="1">
                    <mxGeometry x="110" y="80" width="110" height="120" as="geometry"/>
                </mxCell>
                <mxCell id="bdaFyPw2M_IR0UO48AUZ-2" value="&lt;u&gt;Id&lt;/u&gt;&lt;br&gt;&lt;br&gt;Titre&lt;br&gt;&lt;br&gt;Auteur" style="text;html=1;align=center;verticalAlign=middle;resizable=0;points=[];autosize=1;strokeColor=none;fillColor=none;fontFamily=FiraCode Nerd Font Propo;" parent="bdaFyPw2M_IR0UO48AUZ-1" vertex="1">
                    <mxGeometry x="20" y="25" width="70" height="90" as="geometry"/>
                </mxCell>
                <mxCell id="bdaFyPw2M_IR0UO48AUZ-11" style="edgeStyle=orthogonalEdgeStyle;rounded=0;orthogonalLoop=1;jettySize=auto;html=1;exitX=1;exitY=0.5;exitDx=0;exitDy=0;entryX=0;entryY=0.5;entryDx=0;entryDy=0;shape=link;fontFamily=FiraCode Nerd Font Propo;" parent="1" source="bdaFyPw2M_IR0UO48AUZ-4" target="bdaFyPw2M_IR0UO48AUZ-7" edge="1">
                    <mxGeometry relative="1" as="geometry"/>
                </mxCell>
                <mxCell id="bdaFyPw2M_IR0UO48AUZ-12" value="&lt;font style=&quot;font-size: 14px;&quot;&gt;0,N&lt;/font&gt;" style="edgeLabel;html=1;align=center;verticalAlign=middle;resizable=0;points=[];fontFamily=FiraCode Nerd Font Propo;" parent="bdaFyPw2M_IR0UO48AUZ-11" vertex="1" connectable="0">
                    <mxGeometry x="-0.2545" y="1" relative="1" as="geometry">
                        <mxPoint x="9" y="1" as="offset"/>
                    </mxGeometry>
                </mxCell>
                <mxCell id="bdaFyPw2M_IR0UO48AUZ-4" value="&lt;font style=&quot;font-size: 18px;&quot;&gt;Emprunt&lt;/font&gt;&lt;br&gt;Id" style="ellipse;whiteSpace=wrap;html=1;fontFamily=FiraCode Nerd Font Propo;" parent="1" vertex="1">
                    <mxGeometry x="330" y="100" width="120" height="80" as="geometry"/>
                </mxCell>
                <mxCell id="bdaFyPw2M_IR0UO48AUZ-7" value="Elève" style="swimlane;whiteSpace=wrap;html=1;startSize=23;fontFamily=FiraCode Nerd Font Propo;" parent="1" vertex="1">
                    <mxGeometry x="570" y="70" width="110" height="140" as="geometry"/>
                </mxCell>
                <mxCell id="bdaFyPw2M_IR0UO48AUZ-8" value="&lt;u&gt;Id&lt;/u&gt;&lt;br&gt;&lt;br&gt;Nom&lt;br&gt;&lt;br&gt;Prénom&lt;br&gt;&lt;br&gt;Classe" style="text;html=1;align=center;verticalAlign=middle;resizable=0;points=[];autosize=1;strokeColor=none;fillColor=none;fontFamily=FiraCode Nerd Font Propo;" parent="bdaFyPw2M_IR0UO48AUZ-7" vertex="1">
                    <mxGeometry x="20" y="25" width="70" height="110" as="geometry"/>
                </mxCell>
            </root>
        </mxGraphModel>
    </diagram>
</mxfile>